<svg viewBox="0 0 256 256" xmlns="http://www.w3.org/2000/svg" role="img" aria-label="apairo mark">
  <title>apairo mark</title>

  <!-- clink spark -->
  <g stroke="#6B7A88" stroke-width="7" stroke-linecap="round">
    <line x1="128" y1="80" x2="128" y2="50"/>
    <line x1="116" y1="84" x2="104" y2="58"/>
    <line x1="140" y1="84" x2="152" y2="58"/>
  </g>

  <!-- LEFT database (charbon) -->
  <g transform="translate(80,148) rotate(14)" fill="none" stroke="#2E3A48" stroke-width="8" stroke-linecap="round" stroke-linejoin="round">
    <ellipse cx="0" cy="-52" rx="34" ry="11"/>
    <line x1="-34" y1="-52" x2="-34" y2="52"/>
    <line x1="34" y1="-52" x2="34" y2="52"/>
    <path d="M-34,0 a34,11 0 0,0 68,0"/>
    <path d="M-34,52 a34,11 0 0,0 68,0"/>
  </g>

  <!-- RIGHT database (ocre) -->
  <g transform="translate(176,148) rotate(-14)" fill="none" stroke="#DDA42A" stroke-width="8" stroke-linecap="round" stroke-linejoin="round">
    <ellipse cx="0" cy="-52" rx="34" ry="11"/>
    <line x1="-34" y1="-52" x2="-34" y2="52"/>
    <line x1="34" y1="-52" x2="34" y2="52"/>
    <path d="M-34,0 a34,11 0 0,0 68,0"/>
    <path d="M-34,52 a34,11 0 0,0 68,0"/>
  </g>
</svg>
